#!OML:ASF F:\VICON\USERDATA\INSTALL\rory3\rory3.ASF
:FULLY-SPECIFIED
:DEGREES
320
root 0.603274 18.5308 -13.9707 8.41691 -5.75434 3.24954
lowerback 6.9611 -0.586952 -0.817768
upperback -2.01136 -0.711367 2.60911
thorax -5.96628 -0.269413 3.27272
lowerneck -18.7272 -2.4625 -10.1283
upperneck 11.7468 -1.76353 6.63476
head 6.79225 -0.724806 3.6148
rclavicle 1.90833e-014 3.33958e-014
rhumerus -34.586 -14.0067 -75.4536
rradius 34.2645
rwrist 2.75323
rhand -16.682 10.6463
rfingers 7.12502
rthumb 9.54215 -19.1177
lclavicle 1.90833e-014 3.33958e-014
lhumerus -37.8835 12.802 82.7217
lradius 45.3745
lwrist -4.7691
lhand -21.7279 22.7082
lfingers 7.12502
lthumb 4.67148 52.6367
rfemur -11.5366 6.71142 16.5618
rtibia 23.4826
rfoot -0.961633 -10.6332
rtoes 6.39279
lfemur -9.19436 -2.95398 -21.0828
ltibia 17.2203
lfoot 1.01976 1.03012
ltoes -13.0197
321
root 0.59811 18.5313 -13.9687 8.36305 -5.69983 3.12926
lowerback 7.00982 -0.592735 -0.81951
upperback -2.07825 -0.716191 2.63905
thorax -6.06412 -0.26922 3.30818
lowerneck -18.3778 -2.41986 -10.199
upperneck 11.9566 -1.73126 6.64229
head 6.80029 -0.720141 3.63447
rclavicle -2.20651e-014 -1.90833e-014
rhumerus -35.2802 -13.9023 -75.2813
rradius 34.2132
rwrist 2.94378
rhand -16.0879 10.5528
rfingers 7.12502
rthumb 10.1154 -19.184
lclavicle -2.20651e-014 -1.90833e-014
lhumerus -38.3209 12.9743 82.7198
lradius 44.8012
lwrist -4.85581
lhand -20.9784 23.9495
lfingers 7.12502
lthumb 5.39516 53.8608
rfemur -11.4299 6.54464 16.726
rtibia 23.4585
rfoot -1.02743 -10.5243
rtoes 6.31087
lfemur -9.15893 -2.97944 -20.9181
ltibia 17.2374
lfoot 1.11639 0.979503
ltoes -13.3777
322
root 0.592452 18.5311 -13.9645 8.329 -5.70125 3.05525
lowerback 6.94867 -0.538854 -0.812549
upperback -2.07613 -0.647878 2.56861
thorax -6.03183 -0.23764 3.22066
lowerneck -18.06 -2.47456 -10.1192
upperneck 11.8454 -1.86427 6.69657
head 6.72299 -0.779064 3.62278
rclavicle -6.55989e-015 2.70347e-014
rhumerus -35.8924 -14.3449 -75.0635
rradius 34.0635
rwrist 3.49704
rhand -15.3587 10.6468
rfingers 7.12502
rthumb 10.8187 -19.0546
lclavicle -6.55989e-015 2.70347e-014
lhumerus -38.4911 13.014 82.6576
lradius 43.7845
lwrist -5.06727
lhand -20.1891 26.1075
lfingers 7.12502
lthumb 6.15725 55.9981
rfemur -11.2945 6.59866 16.8173
rtibia 23.3557
rfoot -0.899664 -10.6229
rtoes 6.68885
lfemur -9.15386 -2.90049 -20.8154
ltibia 17.2973
lfoot 1.1184 0.855864
ltoes -12.2907
323
root 0.587788 18.5332 -13.9612 8.31158 -5.76623 3.00414
lowerback 6.84972 -0.477624 -0.83406
upperback -1.93697 -0.574663 2.49802
thorax -5.8334 -0.205866 3.14552
lowerneck -18.2244 -2.57594 -10.0946
upperneck 11.735 -2.00707 6.81765
head 6.7283 -0.831986 3.64201
rclavicle -1.31198e-014 -4.77083e-014
rhumerus -35.771 -15.2293 -74.8257
rradius 33.1662
rwrist 4.2795
rhand -15.1463 10.9248
rfingers 7.12502
rthumb 11.0236 -18.7657
lclavicle -1.31198e-014 -4.77083e-014
lhumerus -38.314 13.2411 82.5631
lradius 42.2802
lwrist -5.55107
lhand -19.5888 26.963
lfingers 7.12502
lthumb 6.73676 56.8359
rfemur -11.1679 6.52523 16.8718
rtibia 23.1786
rfoot -0.726247 -10.5441
rtoes 6.7643
lfemur -9.14958 -2.88384 -20.7513
ltibia 17.411
lfoot 1.01012 0.953583
ltoes -13.3608
324
root 0.584846 18.5371 -13.9598 8.34978 -5.81203 2.82575
lowerback 6.77113 -0.452293 -0.723209
upperback -1.85347 -0.53406 2.47
thorax -5.70412 -0.192595 3.04586
lowerneck -18.4462 -2.61562 -9.93236
upperneck 11.8749 -2.06668 6.70797
head 6.81275 -0.860861 3.57423
rclavicle -2.127e-014 3.97569e-015
rhumerus -35.6112 -16.0182 -74.6412
rradius 32.1885
rwrist 4.95952
rhand -15.3658 11.0917
rfingers 7.12502
rthumb 10.8119 -18.61
lclavicle -2.127e-014 3.97569e-015
lhumerus -38.2085 13.6336 82.3844
lradius 40.8876
lwrist -6.15081
lhand -19.8582 26.7065
lfingers 7.12502
lthumb 6.47671 56.5874
rfemur -11.1094 6.36445 17.0615
rtibia 22.9966
rfoot -0.844039 -10.2572
rtoes 6.09451
lfemur -9.20558 -2.76074 -20.5536
ltibia 17.5338
lfoot 0.878713 0.959891
ltoes -12.4919
325
root 0.581456 18.5338 -13.9579 8.38334 -5.83867 2.67283
lowerback 6.71331 -0.467158 -0.699735
upperback -1.89582 -0.549392 2.50931
thorax -5.71472 -0.199816 3.07527
lowerneck -18.3397 -2.58732 -9.83973
upperneck 12.1054 -2.0389 6.5171
head 6.86433 -0.864579 3.50134
rclavicle -8.15017e-015 -6.36111e-015
rhumerus -35.9069 -16.1308 -74.5044
rradius 31.7759
rwrist 5.2434
rhand -15.4665 10.7498
rfingers 7.12502
rthumb 10.7148 -18.957
lclavicle -8.15017e-015 -6.36111e-015
lhumerus -38.6158 14.0198 82.2279
lradius 40.1516
lwrist -6.43245
lhand -20.9417 25.3584
lfingers 7.12502
lthumb 5.43063 55.2688
rfemur -11.0253 6.27059 17.2274
rtibia 22.8367
rfoot -1.02783 -10.1012
rtoes 5.35053
lfemur -9.28791 -2.63588 -20.3794
ltibia 17.6673
lfoot 0.790797 0.913817
ltoes -11.8634
326
root 0.577197 18.5293 -13.9581 8.3884 -5.78956 2.65957
lowerback 6.64104 -0.525287 -0.828205
upperback -1.93441 -0.637162 2.53126
thorax -5.70756 -0.238025 3.18026
lowerneck -18.271 -2.4825 -9.8036
upperneck 12.2719 -1.90918 6.46332
head 6.8948 -0.808433 3.4942
rclavicle 2.127e-014 -4.77083e-015
rhumerus -36.3039 -16.24 -74.3333
rradius 31.5102
rwrist 5.49614
rhand -15.3428 10.6682
rfingers 7.12502
rthumb 10.8341 -19.0324
lclavicle 2.127e-014 -4.77083e-015
lhumerus -39.078 14.3258 82.0845
lradius 39.5883
lwrist -6.57023
lhand -22.7516 19.2456
lfingers 7.12502
lthumb 3.68297 49.1935
rfemur -10.9302 6.17623 17.2653
rtibia 22.7127
rfoot -1.07412 -10.0963
rtoes 5.22794
lfemur -9.33965 -2.61576 -20.3426
ltibia 17.7651
lfoot 0.673621 0.923314
ltoes -11.5951
327
root 0.570153 18.527 -13.9616 8.485 -5.5397 2.68959
lowerback 6.47761 -0.611258 -0.919779
upperback -1.95646 -0.761495 2.5129
thorax -5.62901 -0.297475 3.22382
lowerneck -18.432 -2.42122 -9.79152
upperneck 12.4496 -1.82412 6.49713
head 6.97229 -0.763682 3.51565
rclavicle 2.08724e-014 -2.38542e-015
rhumerus -36.5823 -16.79 -74.0704
rradius 31.0909
rwrist 6.15935
rhand -15.1865 10.7369
rfingers 7.12502
rthumb 10.9848 -18.9557
lclavicle 2.08724e-014 -2.38542e-015
lhumerus -39.2893 15.1999 81.5067
lradius 37.617
lwrist -6.55526
lhand -21.0892 18.737
lfingers 7.12502
lthumb 5.28819 48.651
rfemur -10.9487 5.98408 17.2895
rtibia 22.6243
rfoot -1.13279 -10.1678
rtoes 4.93335
lfemur -9.48272 -2.6348 -20.3125
ltibia 17.7839
lfoot 0.566394 0.731976
ltoes -11.8918
328
root 0.564764 18.5221 -13.9595 8.51256 -5.41441 2.65103
lowerback 6.3919 -0.618517 -0.898057
upperback -1.92219 -0.772863 2.46112
thorax -5.54418 -0.306241 3.15605
lowerneck -18.7134 -2.47087 -9.79881
upperneck 12.674 -1.87709 6.54892
head 7.09769 -0.783159 3.53144
rclavicle -9.34288e-015 1.66979e-014
rhumerus -36.8032 -17.291 -73.9109
rradius 30.7712
rwrist 6.57716
rhand -14.938 10.7958
rfingers 7.12502
rthumb 11.2246 -18.8839
lclavicle -9.34288e-015 1.66979e-014
lhumerus -39.3858 15.409 81.3788
lradius 36.9759
lwrist -7.39663
lhand -19.229 23.021
lfingers 7.12502
lthumb 7.0841 52.8824
rfemur -10.9144 5.84275 17.3656
rtibia 22.5694
rfoot -1.23079 -10.2018
rtoes 5.34444
lfemur -9.46997 -2.48669 -20.2509
ltibia 17.745
lfoot 0.495468 0.55318
ltoes -11.9805
329
root 0.566418 18.5145 -13.9443 8.32593 -5.60792 2.63368
lowerback 6.34727 -0.537375 -0.888219
upperback -1.81727 -0.66888 2.39105
thorax -5.41564 -0.258948 3.06302
lowerneck -18.61 -2.49977 -9.83649
upperneck 12.6177 -1.92378 6.60034
head 7.06699 -0.803609 3.54852
rclavicle 5.96354e-016 -3.89618e-014
rhumerus -37.1386 -17.5029 -73.8163
rradius 30.6519
rwrist 6.59223
rhand -14.7011 11.0029
rfingers 7.12502
rthumb 11.453 -18.6643
lclavicle 5.96354e-016 -3.89618e-014
lhumerus -39.5945 15.5987 81.3164
lradius 36.4175
lwrist -7.22916
lhand -19.3396 25.0719
lfingers 7.12502
lthumb 6.97731 54.9369
rfemur -10.6783 5.84969 17.3596
rtibia 22.54
rfoot -1.39488 -10.0567
rtoes 5.42863
lfemur -9.1004 -2.44211 -20.3109
ltibia 17.6745
lfoot 0.294812 0.833731
ltoes -11.9374
330
root 0.566715 18.5036 -13.9329 8.13314 -5.67145 2.65069
lowerback 6.31272 -0.481556 -0.912918
upperback -1.71848 -0.601553 2.31797
thorax -5.29673 -0.228396 2.99098
lowerneck -18.4529 -2.57689 -9.91325
upperneck 12.5484 -2.04001 6.70649
head 7.03026 -0.855097 3.58208
rclavicle 2.32578e-014 -1.43125e-014
rhumerus -37.4435 -17.6685 -73.7095
rradius 30.4843
rwrist 6.45589
rhand -14.6297 10.8283
rfingers 7.12502
rthumb 11.5219 -18.8351
lclavicle 2.32578e-014 -1.43125e-014
lhumerus -39.7627 15.8339 81.1299
lradius 35.6112
lwrist -7.25942
lhand -19.6779 25.4206
lfingers 7.12502
lthumb 6.65076 55.2961
rfemur -10.4188 5.82146 17.3507
rtibia 22.5378
rfoot -1.64622 -10.0673
rtoes 5.74428
lfemur -8.76052 -2.55807 -20.3744
ltibia 17.5892
lfoot 0.105844 1.18356
ltoes -11.7906
331
root 0.564114 18.4896 -13.9262 7.99908 -5.70281 2.65735
lowerback 6.2365 -0.434077 -0.958183
upperback -1.63205 -0.546507 2.25124
thorax -5.16615 -0.203148 2.93833
lowerneck -18.5016 -2.65165 -9.95176
upperneck 12.6037 -2.14653 6.81335
head 7.06755 -0.898194 3.61262
rclavicle -7.65321e-015 8.74653e-015
rhumerus -37.7793 -17.9434 -73.5996
rradius 30.4587
rwrist 6.50306
rhand -14.5919 10.4402
rfingers 7.12502
rthumb 11.5583 -19.221
lclavicle -7.65321e-015 8.74653e-015
lhumerus -39.8826 16.2824 80.7986
lradius 34.679
lwrist -7.47195
lhand -20.4927 23.0899
lfingers 7.12502
lthumb 5.86413 52.9888
rfemur -10.2096 5.60368 17.3808
rtibia 22.5556
rfoot -1.77775 -9.89567
rtoes 5.13817
lfemur -8.55459 -2.4689 -20.4182
ltibia 17.5257
lfoot -0.0639371 1.31005
ltoes -11.9022
